<!-- <svg id="wave" style="transform:rotate(0deg); transition: 0.3s" viewBox="0 0 1440 490" version="1.1" xmlns="http://www.w3.org/2000/svg"><defs><linearGradient id="sw-gradient-0" x1="0" x2="0" y1="1" y2="0"><stop stop-color="rgba(85, 35, 109, 1)" offset="0%"></stop><stop stop-color="rgba(85, 35, 109, 1)" offset="100%"></stop></linearGradient></defs><path style="transform:translate(0, 0px); opacity:1" fill="url(#sw-gradient-0)" d="M0,98L40,98C80,98,160,98,240,106.2C320,114,400,131,480,163.3C560,196,640,245,720,294C800,343,880,392,960,408.3C1040,425,1120,408,1200,383.8C1280,359,1360,327,1440,261.3C1520,196,1600,98,1680,65.3C1760,33,1840,65,1920,81.7C2000,98,2080,98,2160,130.7C2240,163,2320,229,2400,220.5C2480,212,2560,131,2640,98C2720,65,2800,82,2880,98C2960,114,3040,131,3120,171.5C3200,212,3280,278,3360,277.7C3440,278,3520,212,3600,179.7C3680,147,3760,147,3840,179.7C3920,212,4000,278,4080,294C4160,310,4240,278,4320,285.8C4400,294,4480,343,4560,375.7C4640,408,4720,425,4800,359.3C4880,294,4960,147,5040,98C5120,49,5200,98,5280,106.2C5360,114,5440,82,5520,65.3C5600,49,5680,49,5720,49L5760,49L5760,490L5720,490C5680,490,5600,490,5520,490C5440,490,5360,490,5280,490C5200,490,5120,490,5040,490C4960,490,4880,490,4800,490C4720,490,4640,490,4560,490C4480,490,4400,490,4320,490C4240,490,4160,490,4080,490C4000,490,3920,490,3840,490C3760,490,3680,490,3600,490C3520,490,3440,490,3360,490C3280,490,3200,490,3120,490C3040,490,2960,490,2880,490C2800,490,2720,490,2640,490C2560,490,2480,490,2400,490C2320,490,2240,490,2160,490C2080,490,2000,490,1920,490C1840,490,1760,490,1680,490C1600,490,1520,490,1440,490C1360,490,1280,490,1200,490C1120,490,1040,490,960,490C880,490,800,490,720,490C640,490,560,490,480,490C400,490,320,490,240,490C160,490,80,490,40,490L0,490Z"></path></svg> -->

<svg viewBox="0 0 1440 320" xmlns="http://www.w3.org/2000/svg">
  <path fill="#0099ff" fill-opacity="1" d="M0,160L60,170.7C120,181,240,203,360,213.3C480,224,600,224,720,213.3C840,203,960,181,1080,176C1200,171,1320,181,1380,186.7L1440,192L1440,320L1380,320C1320,320,1200,320,1080,320C960,320,840,320,720,320C600,320,480,320,360,320C240,320,120,320,60,320L0,320Z"></path>
</svg>
