<!-- <?xml version="1.0" standalone="no"?>
<!DOCTYPE svg PUBLIC "-//W3C//DTD SVG 20010904//EN"
 "http://www.w3.org/TR/2001/REC-SVG-20010904/DTD/svg10.dtd">
<svg version="1.0" xmlns="http://www.w3.org/2000/svg"
 width="570.000000pt" height="438.000000pt" viewBox="0 0 570.000000 438.000000"
 preserveAspectRatio="xMidYMid meet">

<g transform="translate(0.000000,438.000000) scale(0.100000,-0.100000)"
fill="#440E62" stroke="none">
<path d="M2040 3400 c0 -5 24 -10 53 -10 28 0 68 -4 86 -10 45 -13 51 -6 12
14 -33 18 -151 22 -151 6z"/>
<path d="M2118 3363 c12 -2 32 -2 45 0 12 2 2 4 -23 4 -25 0 -35 -2 -22 -4z"/>
<path d="M3760 3242 c0 -13 61 -75 67 -68 8 8 -24 54 -47 66 -11 6 -20 7 -20
2z"/>
<path d="M2711 3132 c-43 -48 -33 -50 18 -4 23 21 36 39 28 39 -8 0 -29 -16
-46 -35z"/>
<path d="M4090 2960 c0 -5 7 -7 15 -4 8 4 15 8 15 10 0 2 -7 4 -15 4 -8 0 -15
-4 -15 -10z"/>
<path d="M4141 2724 c0 -11 3 -14 6 -6 3 7 2 16 -1 19 -3 4 -6 -2 -5 -13z"/>
<path d="M1726 2634 c-36 -43 -62 -88 -76 -127 -24 -73 -16 -66 35 28 21 39
50 86 65 105 66 85 47 81 -24 -6z"/>
<path d="M4392 2200 c0 -19 2 -27 5 -17 2 9 2 25 0 35 -3 9 -5 1 -5 -18z"/>
<path d="M1432 1898 c6 -18 28 -21 28 -4 0 9 -7 16 -16 16 -9 0 -14 -5 -12
-12z"/>
<path d="M1420 1487 c0 -15 30 -80 36 -74 3 3 -4 22 -15 44 -11 21 -20 34 -21
30z"/>
<path d="M2130 822 c1 -12 34 -49 55 -60 11 -5 38 -15 60 -21 l40 -10 -26 22
c-45 37 -129 83 -129 69z"/>
<path d="M3245 689 c-67 -15 -160 -42 -169 -50 -12 -11 173 30 209 46 34 15
18 17 -40 4z"/>
</g>
</svg> -->


<svg id="10015.io" viewBox="0 0 480 480" xmlns="http://www.w3.org/2000/svg" xmlns:xlink="http://www.w3.org/1999/xlink" >
	<path fill="#dc3635" d="M384,265.5Q381,291,399.5,340.5Q418,390,380,403.5Q342,417,305,407.5Q268,398,235,427Q202,456,177,424.5Q152,393,140,363.5Q128,334,76.5,326Q25,318,46.5,279Q68,240,84,214.5Q100,189,83.5,142Q67,95,104.5,83Q142,71,177,75.5Q212,80,238.5,89.5Q265,99,307.5,74Q350,49,348.5,99.5Q347,150,393.5,158.5Q440,167,413.5,203.5Q387,240,384,265.5Z" />
</svg>
